<svg width="539" height="583" viewBox="0 0 539 583" fill="none" xmlns="http://www.w3.org/2000/svg">
<path d="M485.306 1.51529C485.306 1.9029 485.306 3.45921 491.12 26.2518C496.934 47.6878 508.562 89.162 515.134 111.981C521.706 134.8 522.869 137.707 521.13 138.94" stroke="#111111" stroke-width="2" stroke-linecap="round"/>
<path d="M430.191 82.522C429.827 82.522 429.464 82.522 430.004 83.6127C430.543 84.7033 431.998 86.8845 433.837 88.7353C435.677 90.586 437.858 92.0402 440.106 93.5384" stroke="#111111" stroke-width="2" stroke-linecap="round"/>
<path d="M466.545 188.28C466.182 188.28 465.818 188.28 465.449 189.734C465.08 191.188 464.716 194.096 463.984 202.138C463.251 210.18 462.161 223.268 461.037 236.752" stroke="#111111" stroke-width="2" stroke-linecap="round"/>
<path d="M444.512 102.352C444.512 102.715 444.512 103.079 444.694 104.538C444.876 105.998 445.239 108.543 448.698 120.396C452.158 132.25 458.701 153.336 465.443 176.162" stroke="#111111" stroke-width="2" stroke-linecap="round"/>
<path d="M125.036 111.165C124.673 110.801 124.309 110.438 123.395 111.159C122.48 111.881 121.026 113.698 115.915 132.085C110.803 150.471 102.078 185.371 93.0886 224.634" stroke="#111111" stroke-width="2" stroke-linecap="round"/>
<path d="M44.6163 184.975C44.2528 184.975 43.8893 184.975 43.5202 186.247C43.1512 187.519 42.7876 190.064 38.4196 203.009C34.0516 215.953 25.6902 239.219 17.0753 266.496" stroke="#111111" stroke-width="2" stroke-linecap="round"/>
<path d="M100.8 283.021C100.8 283.384 100.8 283.748 91.7116 319.38C82.623 355.013 64.446 425.904 46.8197 496.739" stroke="#111111" stroke-width="2" stroke-linecap="round"/>
<path d="M19.2786 276.411C19.2786 277.138 19.2786 277.865 18.7333 311.322C18.188 344.779 17.0974 410.943 16.172 447.028C15.2466 483.112 14.5195 487.111 11.5671 494.536" stroke="#111111" stroke-width="2" stroke-linecap="round"/>
<path d="M95.2919 224.634C94.5649 225.361 94.1903 229.007 95.2809 240.145C96.3716 248.011 98.5528 260.371 100.04 267.829C101.527 275.287 102.254 277.469 103.003 279.716" stroke="#111111" stroke-width="2" stroke-linecap="round"/>
<path d="M140.459 83.6237C140.823 83.2602 141.186 82.8966 140.465 83.4364C139.743 83.9762 137.925 85.4304 134.99 89.0878C132.054 92.7453 128.055 98.5619 123.935 104.555" stroke="#111111" stroke-width="2" stroke-linecap="round"/>
<path d="M13.7705 497.841C13.7705 498.204 13.7705 498.568 12.6799 499.3C-10.5057 514.875 8.60379 577.512 15.3679 580.078C24.9073 583.698 36.8499 581.577 48.2023 578.106C61.1071 574.162 68.467 566.165 71.4029 559.042C73.3335 554.359 72.8846 546.467 71.2541 540.353C69.6237 534.239 65.9883 529.877 62.116 526.175C58.2437 522.474 54.2448 519.565 50.1247 516.569" stroke="#111111" stroke-width="2" stroke-linecap="round"/>
<path d="M527.135 166.247C527.135 166.61 527.135 166.974 528.044 173.523C528.953 180.072 530.771 192.796 533.745 211.414" stroke="#111111" stroke-width="2" stroke-linecap="round"/>
<path d="M537.05 226.837C536.687 227.564 536.323 228.291 534.863 271.382C533.404 314.473 530.859 399.905 529.339 493.434" stroke="#111111" stroke-width="2" stroke-linecap="round"/>
<path d="M462.138 249.971C462.138 250.699 463.229 255.436 468.699 287.13C473.078 314.462 480.712 364.63 485.554 392.474C490.396 420.318 492.213 424.317 494.086 429.539" stroke="#111111" stroke-width="2" stroke-linecap="round"/>
<path d="M58.9358 21.4831C58.9358 21.8707 58.742 23.427 56.6072 47.0917C54.6662 69.3998 50.984 112.618 48.7963 136.239C46.6087 159.86 46.0273 162.573 45.4282 165.368" stroke="#111111" stroke-width="2" stroke-linecap="round"/>
<path d="M495.188 435.047C491.541 436.865 468.925 478.364 459.93 514.101C457.306 524.524 465.796 531.97 470.18 537.092C476.566 544.553 487.421 547.415 498.046 546.506C514.632 540.089 521.594 532.036 527.824 522.336C530.782 516.998 533.326 510.818 535.948 504.451" stroke="#111111" stroke-width="2" stroke-linecap="round"/>
</svg>
