<svg width="648" height="184" viewBox="0 0 648 184" fill="none" xmlns="http://www.w3.org/2000/svg">
<path d="M160.938 43.3729C160.211 43.3729 158.382 45.5542 141.637 62.1284C126.712 76.9007 97.2628 103.06 71.9196 124.002C46.5763 144.944 25.8544 159.486 14.6342 168.249C3.41401 177.013 2.32338 179.558 1.19971 182.18" stroke="#111111" stroke-width="2" stroke-linecap="round"/>
<path d="M21.0293 174.468C21.3928 174.105 21.7564 173.741 23.5796 172.827C25.4028 171.912 28.6747 170.458 57.8076 170.073C86.9405 169.687 141.835 170.414 195.089 165.655" stroke="#111111" stroke-width="2" stroke-linecap="round"/>
<path d="M193.987 157.944C193.623 158.307 193.26 158.671 193.254 157.404C193.249 156.137 193.612 153.229 193.618 144.46C193.623 135.69 193.26 121.149 192.885 106.167" stroke="#111111" stroke-width="2" stroke-linecap="round"/>
<path d="M529.988 1.5105C529.988 2.23758 529.988 5.52047 547.074 31.7395C562.854 55.9538 598.333 98.6753 617.392 122.603C636.45 146.531 639.358 149.439 641.584 151.846C643.809 154.253 645.263 156.071 646.762 157.944" stroke="#111111" stroke-width="2" stroke-linecap="round"/>
<path d="M485.922 10.3237C485.922 10.6873 485.922 11.0508 485.74 12.6923C485.558 14.3337 485.195 17.242 483.008 41.8252C480.821 66.4083 476.822 112.578 472.702 160.147" stroke="#111111" stroke-width="2" stroke-linecap="round"/>
<path d="M470.499 165.655C470.499 166.382 473.044 167.12 497.803 168.58C520.018 169.676 561.825 171.494 585.18 173.157C608.535 174.821 612.17 176.275 617.017 177.773" stroke="#111111" stroke-width="2" stroke-linecap="round"/>
</svg>
