<svg width="163" height="202" viewBox="0 0 163 202" fill="none" xmlns="http://www.w3.org/2000/svg">
<path d="M42.7726 25.1755C42.7726 24.7879 40.8346 24.5882 37.1229 25.0727C27.4933 26.3298 20.6789 42.1598 11.8755 63.0614C7.09206 74.4184 7.72925 89.8828 8.79811 107.848C9.87477 125.944 15.3405 142.169 19.7393 154.39C24.8165 168.497 32.178 177.06 37.4636 184.104C44.2071 193.092 51.5467 195.277 67.1685 198.904C85.7323 203.213 98.6588 194.537 114.762 188.271C120.931 185.87 126.326 179.274 132.777 173.022C137.874 168.083 145.289 151.577 155.267 129.281C163.346 111.228 161.992 99.6435 160.242 88.5555C156.802 66.7643 149.306 53.0716 143.51 41.7458C140.834 36.5165 135.975 33.6089 129.626 27.6539C112.612 11.6942 87.2537 6.40583 80.4823 3.74835C72.4607 0.600234 65.7121 0.897076 59.0493 2.94671C48.6586 6.14314 33.4818 15.1212 22.6463 24.738C12.2499 33.9652 7.55306 49.9708 4.52266 66.1564C0.45631 87.8751 1.85638 103.067 4.57258 112.887C10.4722 134.215 17.9011 149.075 21.8887 155.11C36.1007 176.616 53.2146 186.632 65.5447 191.075C76.5399 195.037 90.8245 191.765 107.224 188.459C118.006 186.285 127.084 179.08 136.903 172.805C144.939 167.669 147.274 153.098 152.677 134.088C156.99 118.913 154.745 107.032 155.141 82.6298C155.295 73.1866 151.432 66.3208 148.69 60.1426C148.097 58.4747 147.709 56.5366 147.219 54.9568C146.728 53.377 146.147 52.2142 144.961 50.4288" stroke="#111111" stroke-width="2" stroke-linecap="round"/>
</svg>
