<svg width="383" height="732" viewBox="0 0 383 732" fill="none" xmlns="http://www.w3.org/2000/svg">
<path d="M206.549 42.4464C206.549 43.1138 206.215 46.1275 187.521 126.429C169.161 204.061 132.785 356.574 113.879 432.972C94.9731 509.37 94.6394 505.031 94.2955 500.562" stroke="#111111" stroke-width="2" stroke-linecap="round"/>
<path d="M310.712 449.997C310.378 449.997 310.045 449.997 312.376 474.025C314.707 498.054 319.713 546.11 322.291 572.368C324.87 598.627 324.87 601.63 325.037 604.179C325.204 606.727 325.538 608.729 325.881 606.747" stroke="#111111" stroke-width="2" stroke-linecap="round"/>
<path d="M19.2591 488.992C18.8955 490.083 18.532 491.174 15.6181 517.002C12.7043 542.83 7.25118 593.362 4.442 622.665C1.63281 651.969 1.63281 658.513 1.63281 665.255" stroke="#111111" stroke-width="2" stroke-linecap="round"/>
<path d="M89.7641 504.415C89.7641 503.688 89.7641 502.961 89.4005 503.677C89.037 504.393 88.3099 506.574 79.7557 544.779C71.2014 582.984 54.8421 657.147 37.9869 730.252" stroke="#111111" stroke-width="2" stroke-linecap="round"/>
<path d="M377.292 527.55C376.929 527.913 376.565 528.277 376.56 530.1C376.554 531.923 376.918 535.195 376.56 550.877C376.202 566.559 375.111 594.552 373.988 623.392" stroke="#111111" stroke-width="2" stroke-linecap="round"/>
<path d="M228.797 52.5593C228.797 53.2267 229.465 56.2404 243.658 122.192C257.184 185.473 283.549 309.286 296.797 374.069C310.045 438.853 309.377 440.855 308.689 442.918" stroke="#111111" stroke-width="2" stroke-linecap="round"/>
<path d="M379.255 1.77716C381.14 4.58357 382.09 57.055 379.737 97.096C379.13 107.422 379.255 125.203 377.852 155.173C376.448 185.144 373.642 226.772 372.898 280.725C372.154 334.677 373.557 399.693 373.585 465.261" stroke="#111111" stroke-width="2" stroke-linecap="round"/>
<path d="M70.2658 79.733C70.2658 80.2008 70.2658 80.6685 59.9756 148.497C49.6854 216.326 29.1051 351.502 18.0353 422.541C6.9656 493.58 6.03012 496.386 3.64893 500.695" stroke="#111111" stroke-width="2" stroke-linecap="round"/>
<path d="M194.413 45.4802C194.747 45.4802 195.081 45.4802 196.921 44.9796C198.762 44.479 202.099 43.4779 210.159 42.2947C218.219 41.1114 230.901 39.7765 249.023 39.4125" stroke="#111111" stroke-width="2" stroke-linecap="round"/>
</svg>
