<svg width="436" height="211" viewBox="0 0 436 211" fill="none" xmlns="http://www.w3.org/2000/svg">
<path d="M186.646 10.8691C186.452 12.6192 184.895 19.2438 174.765 35.2621C170.761 41.5925 162.52 48.1149 145.838 60.0456C129.156 71.9763 103.38 88.4497 88.0665 98.0019C72.753 107.554 68.6831 109.686 66.0051 111.366C63.3271 113.045 62.1643 114.208 60.9662 116.581" stroke="#111111" stroke-width="2" stroke-linecap="round"/>
<path d="M273.564 1.47253C272.977 3.41058 275.302 17.0356 280.391 30.4933C284.024 40.0993 293.866 51.5211 303.933 62.8616C311.479 70.326 328.822 80.2923 353.068 92.1261C363.166 96.7892 368.787 98.7272 375.752 102.486" stroke="#111111" stroke-width="2" stroke-linecap="round"/>
<path d="M375.752 103.66C377.108 104.442 382.576 105.61 408.235 117.303C419.704 126.659 426.047 134.757 428.687 140.034C429.776 142.404 430.358 144.148 430.957 147.12" stroke="#111111" stroke-width="2" stroke-linecap="round"/>
<path d="M58.6171 117.755C56.6731 117.362 41.1277 122.407 25.5792 133.662C13.0319 149.622 4.03463 166.03 1.55334 175.48C1.64437 177.06 2.22579 178.222 2.82482 179.42" stroke="#111111" stroke-width="2" stroke-linecap="round"/>
<path d="M433.893 161.802C434.281 161.802 434.674 163.352 434.774 167.639C434.68 170.376 434.293 174.252 433.899 177.218C433.506 180.184 433.118 182.122 432.719 184.706" stroke="#111111" stroke-width="2" stroke-linecap="round"/>
<path d="M3.99938 191.753C3.80557 191.947 3.61177 192.141 3.51193 193.113C3.41209 194.085 3.41209 195.829 3.7028 198.181C3.99351 200.533 4.57492 203.44 6.93581 209.372" stroke="#111111" stroke-width="2" stroke-linecap="round"/>
</svg>
